# xmcd
#
# Track frame offsets:
#	150
#	20235
#	37557
#	55880
#
# Disc length: 984 seconds
#
# Revision: 0
# Processed by: cddbd v1.5.2PL0 Copyright (c) Steve Scherf et al.
# Submitted via: audiograbber 1.83.01
#
DISCID=2803d604
DTITLE=The Adventures - Raining All Over The World
DYEAR=1992
DGENRE=Pop
TTITLE0=Raining All Over The World
TTITLE1=Straight To Heaven
TTITLE2=Say I'm Sorry
TTITLE3=In The Garden
EXTD=
EXTT0=
EXTT1=
EXTT2=
EXTT3=
PLAYORDER=
